# This file uses centimeters as units for non-parametric coordinates.

mtllib slide_arrow.mtl
g default
v 4.462062 16.212366 0.000000
v 3.403729 21.010508 0.000000
v 13.676661 12.578306 0.000000
v 3.924320 4.640017 0.000000
v 4.559320 9.473450 0.000000
v -8.369746 8.238728 0.000000
v -8.369746 17.129606 0.000000
v 4.228200 17.272619 0.000000
v 4.228200 20.333767 0.000000
v 4.228200 4.887372 0.000000
v 4.228200 6.953067 0.000000
v 4.228200 9.441828 0.000000
v 4.228200 16.229082 0.000000
v 13.375795 12.825262 0.000000
v 4.228200 12.825262 0.000000
v 10.527174 10.014662 0.000000
v 10.527174 12.825262 0.000000
v 8.952185 8.732639 0.000000
v 4.461995 8.732639 0.000000
v 7.377687 7.451017 0.000000
v 7.377687 8.732639 0.000000
v 7.377687 12.825262 0.000000
v 10.527174 15.163460 0.000000
v 4.306445 16.917885 0.000000
v 8.389762 16.917885 0.000000
v 7.377687 16.917885 0.000000
v 7.377687 17.748613 0.000000
v -8.369746 12.825262 0.000000
v -2.070773 12.825262 0.000000
v -2.070773 8.840278 0.000000
v 1.078714 12.825262 0.000000
v 1.078714 9.141052 0.000000
v -3.197880 8.732639 0.000000
v -8.369746 8.732639 0.000000
v -5.220259 8.539502 0.000000
v -5.220259 8.732639 0.000000
v -5.220259 12.825262 0.000000
v -2.070773 16.679344 0.000000
v 1.078714 16.454214 0.000000
v -8.369746 16.917885 0.000000
v -5.407851 16.917885 0.000000
v -5.220259 16.904474 0.000000
v -8.369746 16.917885 -3.702384
v -8.369746 17.129606 -3.702384
v -5.407851 16.917885 -3.702384
v 4.228200 17.272619 -3.702384
v 4.228200 20.333767 -3.702384
v 7.377687 17.748613 -3.702384
v 4.559320 9.473450 -3.702384
v 4.228200 9.441828 -3.702384
v 4.228200 12.825262 -3.702384
v 13.375795 12.825262 -3.702384
v 13.676661 12.578306 -3.702384
v 10.527174 10.014662 -3.702384
v 7.377687 7.451017 -3.702384
v 4.228200 4.887372 -3.702384
v 4.228200 6.953067 -3.702384
v 8.952185 8.732639 -3.702384
v 7.377687 8.732639 -3.702384
v 7.377687 12.825262 -3.702384
v 10.527174 15.163460 -3.702384
v 10.527174 12.825262 -3.702384
v 4.462062 16.212366 -3.702384
v 4.306445 16.917885 -3.702384
v 7.377687 16.917885 -3.702384
v 8.389762 16.917885 -3.702384
v -5.220259 8.732639 -3.702384
v -8.369746 8.732639 -3.702384
v -8.369746 12.825262 -3.702384
v -2.070773 12.825262 -3.702384
v 1.078714 12.825262 -3.702384
v 1.078714 9.141052 -3.702384
v 3.924320 4.640017 -3.702384
v -5.220259 8.539502 -3.702384
v -8.369746 8.238728 -3.702384
v -3.197880 8.732639 -3.702384
v -2.070773 8.840278 -3.702384
v 3.403729 21.010508 -3.702384
v -2.070773 16.679344 -3.702384
v 1.078714 16.454214 -3.702384
v 4.228200 16.229082 -3.702384
v -5.220259 12.825262 -3.702384
v -5.220259 16.904474 -3.702384
v 4.461995 8.732639 -3.702384
vt 0.116370 0.618103
vt 0.110453 0.618103
vt 0.116370 0.535325
vt 0.230748 0.530083
vt 0.230748 0.618103
vt 0.116745 0.530083
vt 0.345126 0.530083
vt 0.123037 0.442063
vt 0.230748 0.442063
vt 0.345126 0.618103
vt 0.345126 0.473562
vt 0.350524 0.530083
vt 0.129329 0.354043
vt 0.342118 0.442063
vt 0.358930 0.618103
vt 0.230748 0.354043
vt 0.333712 0.354043
vt 0.135620 0.266023
vt 0.230748 0.266023
vt 0.325307 0.266023
vt 0.136088 0.259487
vt 0.230748 0.178003
vt 0.324423 0.256769
vt 0.116370 0.178003
vt 0.116370 0.149718
vt 0.116370 0.263836
vt 0.345126 0.178003
vt 0.093153 0.178003
vt 0.165402 0.089983
vt 0.345126 0.134000
vt 0.345126 0.259489
vt 0.230748 0.089983
vt 0.106456 0.266023
vt 0.380944 0.178003
vt 0.309297 0.089983
vt 0.230748 0.010371
vt 0.020905 0.266023
vt 0.394861 0.266023
vt 0.001992 0.289065
vt 0.452592 0.266023
vt 0.237650 0.001963
vt 0.459505 0.274515
vt 0.809172 0.618103
vt 0.809172 0.535325
vt 0.815089 0.618103
vt 0.694794 0.530083
vt 0.808797 0.530083
vt 0.694794 0.618103
vt 0.802505 0.442063
vt 0.580416 0.530083
vt 0.694794 0.442063
vt 0.580416 0.618103
vt 0.796214 0.354043
vt 0.575018 0.530083
vt 0.580416 0.473562
vt 0.694794 0.354043
vt 0.566612 0.618103
vt 0.583424 0.442063
vt 0.591830 0.354043
vt 0.789922 0.266023
vt 0.600236 0.266023
vt 0.694794 0.266023
vt 0.789455 0.259487
vt 0.601119 0.256769
vt 0.694794 0.178003
vt 0.809172 0.178003
vt 0.580416 0.178003
vt 0.809172 0.263836
vt 0.809172 0.149718
vt 0.580416 0.259489
vt 0.580416 0.134000
vt 0.832389 0.178003
vt 0.760140 0.089983
vt 0.544598 0.178003
vt 0.616245 0.089983
vt 0.819086 0.266023
vt 0.694794 0.089983
vt 0.530681 0.266023
vt 0.904637 0.266023
vt 0.694794 0.010371
vt 0.472951 0.266023
vt 0.923550 0.289065
vt 0.466038 0.274515
vt 0.687892 0.001963
vt 0.559579 0.864654
vt 0.559579 0.870571
vt 0.456107 0.870571
vt 0.456107 0.864654
vt 0.559579 0.750276
vt 0.456107 0.750276
vt 0.559579 0.635898
vt 0.456107 0.635898
vt 0.559579 0.622094
vt 0.456107 0.622094
vt 0.784929 0.980710
vt 0.784929 0.897932
vt 0.888401 0.897932
vt 0.888401 0.980710
vt 0.784929 0.892690
vt 0.888401 0.892690
vt 0.784929 0.804670
vt 0.888401 0.804670
vt 0.784929 0.716650
vt 0.888401 0.716650
vt 0.784929 0.628630
vt 0.888401 0.628630
vt 0.784929 0.622094
vt 0.888401 0.622094
vt 0.998008 0.622094
vt 0.998008 0.631348
vt 0.894536 0.631348
vt 0.894536 0.622094
vt 0.998008 0.719368
vt 0.894536 0.719368
vt 0.998008 0.807388
vt 0.894536 0.807388
vt 0.998008 0.838887
vt 0.894536 0.838887
vt 0.998008 0.895408
vt 0.894536 0.895408
vt 0.998008 0.983428
vt 0.894536 0.983428
vt 0.340364 0.622094
vt 0.340364 0.641811
vt 0.236892 0.641811
vt 0.236892 0.622094
vt 0.340364 0.651725
vt 0.236892 0.651725
vt 0.340364 0.756190
vt 0.236892 0.756190
vt 0.449971 0.622094
vt 0.449971 0.686738
vt 0.346499 0.686738
vt 0.346499 0.622094
vt 0.449971 0.736472
vt 0.346499 0.736472
vt 0.449971 0.757176
vt 0.346499 0.757176
vt 0.675321 0.886154
vt 0.675321 0.798134
vt 0.778793 0.798134
vt 0.778793 0.886154
vt 0.675321 0.769849
vt 0.778793 0.769849
vt 0.675321 0.909196
vt 0.778793 0.909196
vt 0.675321 0.710114
vt 0.778793 0.710114
vt 0.675321 0.630502
vt 0.778793 0.630502
vt 0.675321 0.622094
vt 0.778793 0.622094
vt 0.669186 0.622094
vt 0.669186 0.710114
vt 0.565714 0.710114
vt 0.565714 0.622094
vt 0.669186 0.754131
vt 0.565714 0.754131
vt 0.669186 0.798134
vt 0.565714 0.798134
vt 0.669186 0.886154
vt 0.565714 0.886154
vt 0.669186 0.894646
vt 0.565714 0.894646
vn -0.925234 -0.000000 -0.379398
vn 0.000000 0.999628 -0.027284
vn 0.062075 0.868397 -0.491968
vn -0.927929 -0.204675 -0.311537
vn 0.617253 0.751998 -0.231294
vn 0.622598 0.758510 -0.192442
vn -0.297672 -0.098132 -0.949611
vn 0.085081 -0.890900 -0.446159
vn 0.000000 0.000000 -1.000000
vn 0.610496 0.743766 -0.272225
vn 0.701611 -0.711102 -0.045565
vn 0.592932 -0.728428 -0.343256
vn 0.621426 -0.763434 -0.176060
vn 0.625292 -0.768183 -0.137494
vn -0.926045 0.121661 -0.357266
vn 0.582401 -0.715491 -0.385853
vn 0.000000 0.000000 -1.000000
vn -0.000000 0.000000 -1.000000
vn 0.597732 0.728215 -0.335291
vn 0.000000 -0.000000 -1.000000
vn -0.294058 0.033404 -0.955204
vn -0.898750 -0.198239 -0.391089
vn -0.000000 -0.000000 -1.000000
vn 0.593417 0.722958 -0.353819
vn 0.000000 0.000000 -1.000000
vn -0.920581 -0.000000 -0.390552
vn -0.920221 0.000000 -0.391400
vn -0.000000 0.000000 -1.000000
vn -0.000000 0.000000 -1.000000
vn 0.084770 -0.887650 -0.452649
vn -0.999804 0.000000 -0.019772
vn 0.095028 -0.995059 -0.028748
vn -0.061089 -0.996179 -0.062419
vn 0.082874 -0.867794 -0.489965
vn 0.084332 -0.883064 -0.461612
vn -0.998886 0.000000 -0.047184
vn 0.063040 0.881907 -0.467189
vn 0.063829 0.892940 -0.445629
vn 0.063962 0.894800 -0.441862
vn 0.000000 0.000000 -1.000000
vn 0.063068 0.882296 -0.466450
vn -0.921676 0.121087 -0.368580
vn -0.925234 0.000000 0.379398
vn 0.062075 0.868397 0.491968
vn 0.000000 0.999628 0.027284
vn -0.927929 -0.204675 0.311537
vn 0.622598 0.758510 0.192442
vn 0.617253 0.751998 0.231294
vn -0.297672 -0.098132 0.949611
vn 0.000000 0.000000 1.000000
vn 0.085081 -0.890900 0.446159
vn 0.610496 0.743766 0.272225
vn 0.592932 -0.728428 0.343256
vn 0.701611 -0.711102 0.045565
vn 0.621426 -0.763434 0.176060
vn -0.926045 0.121661 0.357266
vn 0.625292 -0.768183 0.137494
vn 0.582401 -0.715491 0.385853
vn 0.000000 0.000000 1.000000
vn 0.000000 0.000000 1.000000
vn 0.597732 0.728215 0.335291
vn 0.000000 0.000000 1.000000
vn -0.294058 0.033404 0.955204
vn 0.000000 0.000000 1.000000
vn -0.898750 -0.198239 0.391089
vn 0.593417 0.722958 0.353819
vn 0.000000 0.000000 1.000000
vn -0.920221 0.000000 0.391400
vn -0.920581 0.000000 0.390552
vn 0.000000 0.000000 1.000000
vn 0.084770 -0.887650 0.452649
vn 0.000000 0.000000 1.000000
vn -0.999804 0.000000 0.019772
vn 0.095028 -0.995059 0.028748
vn -0.061089 -0.996179 0.062419
vn 0.082874 -0.867794 0.489965
vn 0.084332 -0.883064 0.461612
vn -0.998886 0.000000 0.047184
vn 0.063829 0.892940 0.445629
vn 0.063040 0.881907 0.467189
vn 0.063962 0.894800 0.441862
vn 0.000000 0.000000 1.000000
vn 0.063068 0.882296 0.466450
vn -0.921676 0.121087 0.368580
s 1
g planarTrimmedSurface1
usemtl initialShadingGroup
f 43/1/1 44/2/2 45/3/3
f 46/33/4 47/37/5 48/28/6
f 49/23/7 50/20/8 51/19/9
f 52/36/10 53/41/11 54/35/12
f 55/34/13 56/40/14 57/38/15
f 58/30/16 55/34/13 59/27/17
f 58/30/16 59/27/17 60/22/18
f 61/29/19 52/36/10 62/32/20
f 63/21/21 64/26/22 65/24/23
f 61/29/19 62/32/20 60/22/18
f 48/28/6 66/25/24 65/24/23
f 67/7/25 68/10/26 69/5/27
f 70/9/28 71/16/29 72/17/30
f 57/38/15 56/40/14 73/42/31
f 71/16/29 51/19/9 50/20/8
f 74/12/32 75/15/33 68/10/26
f 76/11/34 74/12/32 67/7/25
f 70/9/28 77/14/35 76/11/34
f 46/33/4 78/39/36 47/37/5
f 70/9/28 79/8/37 80/13/38
f 81/18/39 51/19/9 71/16/29
f 82/4/40 69/5/27 43/1/1
f 82/4/40 83/6/41 79/8/37
f 48/28/6 65/24/23 64/26/22
f 48/28/6 64/26/22 46/33/4
f 59/27/17 84/31/42 49/23/7
f 51/19/9 60/22/18 49/23/7
f 49/23/7 60/22/18 59/27/17
f 54/35/12 62/32/20 52/36/10
f 84/31/42 59/27/17 55/34/13
f 55/34/13 57/38/15 84/31/42
f 60/22/18 62/32/20 54/35/12
f 60/22/18 54/35/12 58/30/16
f 51/19/9 81/18/39 63/21/21
f 65/24/23 60/22/18 63/21/21
f 63/21/21 60/22/18 51/19/9
f 60/22/18 65/24/23 66/25/24
f 66/25/24 61/29/19 60/22/18
f 69/5/27 82/4/40 67/7/25
f 72/17/30 77/14/35 70/9/28
f 50/20/8 72/17/30 71/16/29
f 68/10/26 67/7/25 74/12/32
f 67/7/25 82/4/40 70/9/28
f 76/11/34 67/7/25 70/9/28
f 80/13/38 71/16/29 70/9/28
f 71/16/29 80/13/38 81/18/39
f 45/3/3 83/6/41 82/4/40
f 82/4/40 43/1/1 45/3/3
f 79/8/37 70/9/28 82/4/40
f 40/43/43 41/44/44 7/45/45
f 8/76/46 27/72/47 9/79/48
f 5/64/49 15/62/50 12/61/51
f 14/80/52 16/75/53 3/84/54
f 20/74/55 11/78/56 10/81/57
f 18/71/58 21/67/59 20/74/55
f 18/71/58 22/65/60 21/67/59
f 23/73/61 17/77/62 14/80/52
f 1/63/63 26/66/64 24/68/65
f 23/73/61 22/65/60 17/77/62
f 27/72/47 26/66/64 25/69/66
f 36/50/67 28/48/68 34/52/69
f 29/51/70 32/59/71 31/56/72
f 11/78/56 4/83/73 10/81/57
f 31/56/72 12/61/51 15/62/50
f 35/54/74 34/52/69 6/57/75
f 33/55/76 36/50/67 35/54/74
f 29/51/70 33/55/76 30/58/77
f 8/76/46 9/79/48 2/82/78
f 29/51/70 39/53/79 38/49/80
f 13/60/81 31/56/72 15/62/50
f 37/46/82 40/43/43 28/48/68
f 37/46/82 38/49/80 42/47/83
f 27/72/47 24/68/65 26/66/64
f 27/72/47 8/76/46 24/68/65
f 21/67/59 5/64/49 19/70/84
f 15/62/50 5/64/49 22/65/60
f 5/64/49 21/67/59 22/65/60
f 16/75/53 14/80/52 17/77/62
f 19/70/84 20/74/55 21/67/59
f 20/74/55 19/70/84 11/78/56
f 22/65/60 16/75/53 17/77/62
f 22/65/60 18/71/58 16/75/53
f 15/62/50 1/63/63 13/60/81
f 26/66/64 1/63/63 22/65/60
f 1/63/63 15/62/50 22/65/60
f 22/65/60 25/69/66 26/66/64
f 25/69/66 22/65/60 23/73/61
f 28/48/68 36/50/67 37/46/82
f 32/59/71 29/51/70 30/58/77
f 12/61/51 31/56/72 32/59/71
f 34/52/69 35/54/74 36/50/67
f 36/50/67 29/51/70 37/46/82
f 33/55/76 29/51/70 36/50/67
f 39/53/79 29/51/70 31/56/72
f 31/56/72 13/60/81 39/53/79
f 41/44/44 37/46/82 42/47/83
f 37/46/82 41/44/44 40/43/43
f 38/49/80 37/46/82 29/51/70
f 40/85/43 7/86/45 44/87/2 43/88/1
f 7/95/45 41/96/44 45/97/3 44/98/2
f 9/139/48 27/140/47 48/141/6 47/142/5
f 5/109/49 12/110/51 50/111/8 49/112/7
f 14/149/52 3/151/54 53/152/11 52/150/10
f 3/153/54 16/154/53 54/155/12 53/156/11
f 20/159/55 10/161/57 56/162/14 55/160/13
f 18/157/58 20/159/55 55/160/13 58/158/16
f 23/147/61 14/149/52 52/150/10 61/148/19
f 1/123/63 24/124/65 64/125/22 63/126/21
f 27/140/47 25/143/66 66/144/24 48/141/6
f 34/91/69 28/89/68 69/90/27 68/92/26
f 10/161/57 4/163/73 73/164/31 56/162/14
f 4/131/73 11/132/56 57/133/15 73/134/31
f 35/119/74 6/121/75 75/122/33 74/120/32
f 6/93/75 34/91/69 68/92/26 75/94/33
f 33/117/76 35/119/74 74/120/32 76/118/34
f 30/115/77 33/117/76 76/118/34 77/116/35
f 8/127/46 2/129/78 78/130/36 46/128/4
f 2/145/78 9/139/48 47/142/5 78/146/36
f 38/101/80 39/103/79 80/104/38 79/102/37
f 28/89/68 40/85/43 43/88/1 69/90/27
f 42/99/83 38/101/80 79/102/37 83/100/41
f 24/124/65 8/127/46 46/128/4 64/125/22
f 19/135/84 5/137/49 49/138/7 84/136/42
f 11/132/56 19/135/84 84/136/42 57/133/15
f 16/154/53 18/157/58 58/158/16 54/155/12
f 13/105/81 1/107/63 63/108/21 81/106/39
f 25/143/66 23/147/61 61/148/19 66/144/24
f 32/113/71 30/115/77 77/116/35 72/114/30
f 12/110/51 32/113/71 72/114/30 50/111/8
f 39/103/79 13/105/81 81/106/39 80/104/38
f 41/96/44 42/99/83 83/100/41 45/97/3
